#!OML:ASF I:\Actors\actors\Patient Classification 2\Patient 1\Session 1\actor1.ASF
:FULLY-SPECIFIED
:DEGREES
159
root -0.589929 18.7496 5.53254 5.32854 -2.8761 -0.122394
lowerback 8.2131 1.12402 -2.33341
upperback -0.234208 1.28721 0.347305
thorax -4.9134 0.698542 1.5143
lowerneck -13.1676 -2.15692 -1.95401
upperneck 16.2202 -2.98893 2.42119
head 7.20837 -1.33273 0.808777
rclavicle -4.96496e-015 -4.5969e-016
rhumerus -54.3893 20.7655 -100.574
rradius 88.2591
rwrist 1.99385
rhand -20.2247 -29.9294
rfingers 7.12502
rthumb 6.12288 -59.8209
lclavicle -4.96496e-015 -4.5969e-016
lhumerus -44.598 -27.861 103.321
lradius 82.3557
lwrist 19.6702
lhand -18.6979 -39.7967
lfingers 7.12502
lthumb 7.59674 -9.9531
rfemur 1.1322 4.94098 12.9522
rtibia -1.98785e-014
rfoot -15.8518 -12.1283
rtoes -7.02536
lfemur -8.25107 -4.91385 -13.7314
ltibia 20.6673
lfoot -21.0732 13.1829
ltoes -55.7204
160
root -0.57109 18.7559 5.46069 5.66385 -3.57186 -0.213457
lowerback 9.05421 1.36346 -1.97521
upperback -0.250798 1.61579 0.22941
thorax -5.40589 0.853518 1.1306
lowerneck -13.0115 -2.17377 -1.97158
upperneck 15.5998 -3.01267 2.51579
head 6.98226 -1.34145 0.842488
rclavicle 4.7522e-016 2.74571e-015
rhumerus -52.2408 22.1661 -100.467
rradius 90.5821
rwrist 5.63169
rhand -22.2312 -30.4607
rfingers 7.12502
rthumb 4.18554 -60.3993
lclavicle 4.7522e-016 2.74571e-015
lhumerus -42.4155 -29.5127 102.731
lradius 85.4092
lwrist 16.8553
lhand -18.7278 -40.9015
lfingers 7.12502
lthumb 7.56789 -11.0569
rfemur 0.264646 5.59265 12.8494
rtibia 3.97569e-015
rfoot -15.39 -12.4962
rtoes -7.76438
lfemur -8.82277 -4.6903 -13.7373
ltibia 20.7901
lfoot -21.0677 13.6759
ltoes -55.6509
161
root -0.585404 18.7617 5.42007 5.72504 -2.64872 -0.118739
lowerback 9.3662 1.03152 -2.21172
upperback 0.170927 1.15191 0.369939
thorax -5.13036 0.626683 1.47333
lowerneck -12.935 -2.11059 -1.89607
upperneck 14.734 -2.89628 2.3674
head 6.6838 -1.29942 0.796094
rclavicle -8.17347e-015 4.39811e-015
rhumerus -49.1719 24.2793 -99.7799
rradius 92.4142
rwrist 8.50871
rhand -26.2777 -30.5925
rfingers 7.12502
rthumb 0.277577 -60.572
lclavicle -8.17347e-015 4.39811e-015
lhumerus -39.0259 -30.9719 101.501
lradius 87.8385
lwrist 13.6203
lhand -18.729 -42.1652
lfingers 7.12502
lthumb 7.56675 -12.3205
rfemur 0.324315 4.66679 12.9126
rtibia -6.36111e-015
rfoot -15.4411 -12.4389
rtoes -7.23305
lfemur -9.31891 -4.69014 -13.6148
ltibia 20.9541
lfoot -20.5624 12.9224
ltoes -55.7702
162
root -0.580576 18.7669 5.36531 5.80568 -2.18582 -0.0204709
lowerback 10.3281 0.900854 -1.97121
upperback 0.220577 0.977707 0.26408
thorax -5.6052 0.536813 1.24025
lowerneck -12.8405 -2.14033 -1.79849
upperneck 14.2921 -2.94545 2.35661
head 6.52537 -1.32176 0.773893
rclavicle 1.09697e-014 -9.08197e-015
rhumerus -46.0367 25.9116 -98.8167
rradius 93.9413
rwrist 11.8426
rhand -28.9516 -31.9242
rfingers 7.12502
rthumb -2.30501 -61.8915
lclavicle 1.09697e-014 -9.08197e-015
lhumerus -35.6015 -32.7133 99.9996
lradius 89.6811
lwrist 10.1016
lhand -18.9109 -43.3163
lfingers 7.12502
lthumb 7.3912 -13.4654
rfemur 0.145927 4.1877 12.8208
rtibia -9.54166e-015
rfoot -15.39 -12.4707
rtoes -6.88307
lfemur -9.8257 -4.8623 -13.6446
ltibia 21.1653
lfoot -20.335 12.6963
ltoes -55.7021
163
root -0.556425 18.7718 5.29753 5.98491 -2.08672 0.0508222
lowerback 10.8697 0.826953 -1.69271
upperback 0.530412 0.901098 0.213398
thorax -5.57497 0.488338 1.03796
lowerneck -12.9518 -2.12917 -1.67715
upperneck 13.749 -2.92064 2.23698
head 6.3668 -1.31537 0.718628
rclavicle -9.44227e-015 -6.77731e-015
rhumerus -41.7391 27.6092 -96.854
rradius 94.992
rwrist 16.2944
rhand -26.7118 -33.7592
rfingers 7.12502
rthumb -0.141695 -63.7389
lclavicle -9.44227e-015 -6.77731e-015
lhumerus -30.9293 -34.2593 97.699
lradius 90.9131
lwrist 6.29119
lhand -19.2227 -44.347
lfingers 7.12502
lthumb 7.09014 -14.4858
rfemur -0.324962 4.0534 12.6322
rtibia -9.54166e-015
rfoot -15.1218 -12.6651
rtoes -7.19802
lfemur -10.4371 -5.09912 -13.7562
ltibia 21.3852
lfoot -20.215 12.8857
ltoes -55.6188
164
root -0.539454 18.7795 5.22673 6.61103 -2.20221 0.0657158
lowerback 11.0924 0.840314 -1.39558
upperback 0.608046 0.945668 0.102822
thorax -5.6125 0.500856 0.74566
lowerneck -12.9592 -2.14945 -1.48544
upperneck 13.327 -2.95784 2.12159
head 6.22975 -1.33521 0.648461
rclavicle -1.75101e-015 -3.80797e-015
rhumerus -37.2378 28.8285 -94.6805
rradius 95.6616
rwrist 20.6415
rhand -28.5782 -35.5795
rfingers 7.12502
rthumb -1.94429 -65.5504
lclavicle -1.75101e-015 -3.80797e-015
lhumerus -25.8995 -35.7221 94.8751
lradius 91.5955
lwrist 2.0586
lhand -19.6267 -45.2689
lfingers 7.12502
lthumb 6.7002 -15.3949
rfemur -1.35145 4.07828 12.4678
rtibia -2.38542e-015
rfoot -14.7418 -12.9442
rtoes -7.51774
lfemur -11.5126 -5.11293 -13.7585
ltibia 21.598
lfoot -20.0877 13.113
ltoes -55.5657
165
root -0.518239 18.7868 5.15346 7.19304 -1.39903 0.152628
lowerback 11.5387 0.519297 -0.848407
upperback 0.605316 0.577179 -0.00966339
thorax -5.8494 0.305252 0.374034
lowerneck -12.9526 -2.14859 -1.40338
upperneck 13.0431 -2.96709 2.12557
head 6.13747 -1.33697 0.636598
rclavicle 2.63312e-015 2.84666e-015
rhumerus -32.7126 29.5385 -92.4413
rradius 96.1369
rwrist 24.6856
rhand -27.4796 -37.614
rfingers 7.12502
rthumb -0.883317 -67.592
lclavicle 2.63312e-015 2.84666e-015
lhumerus -20.49 -36.8995 91.6413
lradius 91.6929
lwrist -2.5795
lhand -20.0706 -45.2419
lfingers 7.12502
lthumb 6.27162 -15.3547
rfemur -2.10943 3.19076 12.3312
rtibia -5.56597e-015
rfoot -14.518 -13.095
rtoes -7.34663
lfemur -12.7645 -5.61689 -13.7388
ltibia 21.8344
lfoot -19.6908 13.0258
ltoes -55.6349
